<svg width="158" height="26" viewBox="0 0 158 26" fill="none" xmlns="http://www.w3.org/2000/svg">
<path d="M1.01019 10.3158L11.7469 2.2633L22.4836 10.3158V23.7367H1.01019V10.3158Z" stroke="#212121" stroke-width="1.60957"/>
<path d="M5.86215 12.853L11.7468 8.43953L17.6315 12.853V19.2686H5.86215V12.853Z" stroke="#212121" stroke-width="1.60957"/>
<path d="M1.25415 19.2686H22.6055" stroke="#212121" stroke-width="1.60957"/>
<path d="M29.7058 20.5V5.38H31.5748V12.0475H39.5338V5.38H41.4028V20.5H39.5338V13.822H31.5748V20.5H29.7058ZM48.7584 20.815C47.6314 20.815 46.6584 20.5595 45.8394 20.0485C45.0274 19.5375 44.4009 18.8305 43.9599 17.9275C43.5189 17.0245 43.2984 15.9885 43.2984 14.8195C43.2984 13.6295 43.5224 12.5865 43.9704 11.6905C44.4184 10.7945 45.0519 10.098 45.8709 9.601C46.6899 9.097 47.6524 8.845 48.7584 8.845C49.8924 8.845 50.8689 9.1005 51.6879 9.6115C52.5069 10.1155 53.1334 10.819 53.5674 11.722C54.0084 12.618 54.2289 13.6505 54.2289 14.8195C54.2289 16.0025 54.0084 17.0455 53.5674 17.9485C53.1264 18.8445 52.4964 19.548 51.6774 20.059C50.8584 20.563 49.8854 20.815 48.7584 20.815ZM48.7584 19.0405C49.9344 19.0405 50.8094 18.6485 51.3834 17.8645C51.9574 17.0805 52.2444 16.0655 52.2444 14.8195C52.2444 13.5385 51.9539 12.52 51.3729 11.764C50.7919 11.001 49.9204 10.6195 48.7584 10.6195C47.9674 10.6195 47.3164 10.798 46.8054 11.155C46.2944 11.512 45.9129 12.0055 45.6609 12.6355C45.4089 13.2655 45.2829 13.9935 45.2829 14.8195C45.2829 16.0935 45.5769 17.1155 46.1649 17.8855C46.7529 18.6555 47.6174 19.0405 48.7584 19.0405ZM60.4257 20.794C59.6977 20.794 59.0712 20.6785 58.5462 20.4475C58.0282 20.2165 57.5977 19.9085 57.2547 19.5235C56.9117 19.1385 56.6422 18.7115 56.4462 18.2425C56.2502 17.7735 56.1102 17.294 56.0262 16.804C55.9492 16.314 55.9107 15.8555 55.9107 15.4285V9.16H57.8007V14.8405C57.8007 15.3725 57.8497 15.887 57.9477 16.384C58.0457 16.881 58.2102 17.329 58.4412 17.728C58.6792 18.127 58.9942 18.442 59.3862 18.673C59.7852 18.904 60.2822 19.0195 60.8772 19.0195C61.3462 19.0195 61.7732 18.939 62.1582 18.778C62.5432 18.617 62.8722 18.379 63.1452 18.064C63.4182 17.742 63.6282 17.336 63.7752 16.846C63.9222 16.356 63.9957 15.7855 63.9957 15.1345L65.2242 15.5125C65.2242 16.6045 65.0247 17.546 64.6257 18.337C64.2337 19.128 63.6772 19.737 62.9562 20.164C62.2422 20.584 61.3987 20.794 60.4257 20.794ZM64.2057 20.5V17.4655H63.9957V9.16H65.8752V20.5H64.2057ZM72.6791 20.8045C71.3281 20.8045 70.2186 20.5105 69.3506 19.9225C68.4896 19.3275 67.9611 18.498 67.7651 17.434L69.6761 17.1295C69.8301 17.7455 70.1836 18.2355 70.7366 18.5995C71.2896 18.9565 71.9756 19.135 72.7946 19.135C73.5716 19.135 74.1806 18.974 74.6216 18.652C75.0626 18.33 75.2831 17.8925 75.2831 17.3395C75.2831 17.0175 75.2096 16.7585 75.0626 16.5625C74.9156 16.3595 74.6111 16.1705 74.1491 15.9955C73.6941 15.8205 73.0046 15.6105 72.0806 15.3655C71.0796 15.0995 70.2921 14.823 69.7181 14.536C69.1441 14.249 68.7346 13.9165 68.4896 13.5385C68.2446 13.1605 68.1221 12.702 68.1221 12.163C68.1221 11.498 68.3041 10.917 68.6681 10.42C69.0321 9.916 69.5396 9.5275 70.1906 9.2545C70.8486 8.9815 71.6116 8.845 72.4796 8.845C73.3406 8.845 74.1106 8.9815 74.7896 9.2545C75.4686 9.5275 76.0146 9.916 76.4276 10.42C76.8476 10.917 77.0961 11.498 77.1731 12.163L75.2621 12.5095C75.1711 11.9005 74.8771 11.421 74.3801 11.071C73.8901 10.721 73.2566 10.5355 72.4796 10.5145C71.7446 10.4865 71.1461 10.616 70.6841 10.903C70.2291 11.19 70.0016 11.5785 70.0016 12.0685C70.0016 12.3415 70.0856 12.576 70.2536 12.772C70.4286 12.968 70.7471 13.1535 71.2091 13.3285C71.6781 13.5035 72.3571 13.703 73.2461 13.927C74.2471 14.179 75.0346 14.4555 75.6086 14.7565C76.1896 15.0505 76.6026 15.4005 76.8476 15.8065C77.0926 16.2055 77.2151 16.699 77.2151 17.287C77.2151 18.379 76.8126 19.24 76.0076 19.87C75.2026 20.493 74.0931 20.8045 72.6791 20.8045ZM84.0248 20.815C82.9118 20.815 81.9388 20.57 81.1058 20.08C80.2798 19.583 79.6358 18.8935 79.1738 18.0115C78.7118 17.1225 78.4808 16.0865 78.4808 14.9035C78.4808 13.6645 78.7083 12.5935 79.1633 11.6905C79.6183 10.7805 80.2518 10.0805 81.0638 9.5905C81.8828 9.0935 82.8418 8.845 83.9408 8.845C85.0818 8.845 86.0513 9.1075 86.8493 9.6325C87.6543 10.1575 88.2563 10.9065 88.6553 11.8795C89.0613 12.8525 89.2363 14.011 89.1803 15.355H87.2903V14.683C87.2693 13.29 86.9858 12.2505 86.4398 11.5645C85.8938 10.8715 85.0818 10.525 84.0038 10.525C82.8488 10.525 81.9703 10.896 81.3683 11.638C80.7663 12.38 80.4653 13.444 80.4653 14.83C80.4653 16.167 80.7663 17.203 81.3683 17.938C81.9703 18.673 82.8278 19.0405 83.9408 19.0405C84.6898 19.0405 85.3408 18.869 85.8938 18.526C86.4468 18.183 86.8808 17.6895 87.1958 17.0455L88.9913 17.665C88.5503 18.666 87.8853 19.443 86.9963 19.996C86.1143 20.542 85.1238 20.815 84.0248 20.815ZM79.8353 15.355V13.8535H88.2143V15.355H79.8353ZM91.098 20.5V5.38H92.799L98.511 17.4235L104.192 5.38H105.914V20.4895H104.139V9.4855L99.0045 20.5H98.007L92.8725 9.4855V20.5H91.098ZM111.661 20.815C110.814 20.815 110.104 20.661 109.53 20.353C108.963 20.038 108.532 19.625 108.238 19.114C107.951 18.603 107.808 18.043 107.808 17.434C107.808 16.839 107.92 16.3245 108.144 15.8905C108.375 15.4495 108.697 15.0855 109.11 14.7985C109.523 14.5045 110.016 14.2735 110.59 14.1055C111.129 13.9585 111.731 13.8325 112.396 13.7275C113.068 13.6155 113.747 13.514 114.433 13.423C115.119 13.332 115.76 13.2445 116.355 13.1605L115.683 13.549C115.704 12.541 115.501 11.7955 115.074 11.3125C114.654 10.8295 113.926 10.588 112.89 10.588C112.204 10.588 111.602 10.7455 111.084 11.0605C110.573 11.3685 110.212 11.8725 110.002 12.5725L108.228 12.037C108.501 11.043 109.029 10.2625 109.813 9.6955C110.597 9.1285 111.63 8.845 112.911 8.845C113.94 8.845 114.822 9.0305 115.557 9.4015C116.299 9.7655 116.831 10.3185 117.153 11.0605C117.314 11.4105 117.415 11.792 117.457 12.205C117.499 12.611 117.52 13.038 117.52 13.486V20.5H115.861V17.7805L116.25 18.0325C115.823 18.9495 115.224 19.6425 114.454 20.1115C113.691 20.5805 112.76 20.815 111.661 20.815ZM111.945 19.2505C112.617 19.2505 113.198 19.1315 113.688 18.8935C114.185 18.6485 114.584 18.33 114.885 17.938C115.186 17.539 115.382 17.105 115.473 16.636C115.578 16.286 115.634 15.8975 115.641 15.4705C115.655 15.0365 115.662 14.704 115.662 14.473L116.313 14.7565C115.704 14.8405 115.105 14.921 114.517 14.998C113.929 15.075 113.373 15.159 112.848 15.25C112.323 15.334 111.85 15.4355 111.43 15.5545C111.122 15.6525 110.832 15.7785 110.559 15.9325C110.293 16.0865 110.076 16.286 109.908 16.531C109.747 16.769 109.666 17.0665 109.666 17.4235C109.666 17.7315 109.743 18.0255 109.897 18.3055C110.058 18.5855 110.303 18.813 110.632 18.988C110.968 19.163 111.406 19.2505 111.945 19.2505ZM119.83 20.5V9.16H121.5V11.9005L121.227 11.5435C121.36 11.1935 121.531 10.8715 121.741 10.5775C121.958 10.2835 122.2 10.042 122.466 9.853C122.76 9.615 123.092 9.433 123.463 9.307C123.834 9.181 124.212 9.1075 124.597 9.0865C124.982 9.0585 125.343 9.083 125.679 9.16V10.9135C125.287 10.8085 124.856 10.7805 124.387 10.8295C123.918 10.8785 123.484 11.05 123.085 11.344C122.721 11.603 122.438 11.918 122.235 12.289C122.039 12.66 121.902 13.0625 121.825 13.4965C121.748 13.9235 121.71 14.361 121.71 14.809V20.5H119.83ZM127.234 20.5L127.244 5.38H129.134V14.62L133.891 9.16H136.316L131.308 14.83L136.904 20.5H134.29L129.134 15.04V20.5H127.234ZM142.238 20.815C141.125 20.815 140.152 20.57 139.319 20.08C138.493 19.583 137.849 18.8935 137.387 18.0115C136.925 17.1225 136.694 16.0865 136.694 14.9035C136.694 13.6645 136.922 12.5935 137.377 11.6905C137.832 10.7805 138.465 10.0805 139.277 9.5905C140.096 9.0935 141.055 8.845 142.154 8.845C143.295 8.845 144.265 9.1075 145.063 9.6325C145.868 10.1575 146.47 10.9065 146.869 11.8795C147.275 12.8525 147.45 14.011 147.394 15.355H145.504V14.683C145.483 13.29 145.199 12.2505 144.653 11.5645C144.107 10.8715 143.295 10.525 142.217 10.525C141.062 10.525 140.184 10.896 139.582 11.638C138.98 12.38 138.679 13.444 138.679 14.83C138.679 16.167 138.98 17.203 139.582 17.938C140.184 18.673 141.041 19.0405 142.154 19.0405C142.903 19.0405 143.554 18.869 144.107 18.526C144.66 18.183 145.094 17.6895 145.409 17.0455L147.205 17.665C146.764 18.666 146.099 19.443 145.21 19.996C144.328 20.542 143.337 20.815 142.238 20.815ZM138.049 15.355V13.8535H146.428V15.355H138.049ZM155.643 20.5C154.971 20.633 154.306 20.6855 153.648 20.6575C152.997 20.6365 152.416 20.507 151.905 20.269C151.394 20.024 151.006 19.646 150.74 19.135C150.516 18.687 150.393 18.2355 150.372 17.7805C150.358 17.3185 150.351 16.797 150.351 16.216V6.01H152.22V16.132C152.22 16.594 152.224 16.9895 152.231 17.3185C152.245 17.6475 152.318 17.931 152.451 18.169C152.703 18.617 153.102 18.8795 153.648 18.9565C154.201 19.0335 154.866 19.0125 155.643 18.8935V20.5ZM148.052 10.7035V9.16H155.643V10.7035H148.052Z" fill="#212121"/>
</svg>
